<svg xmlns="http://www.w3.org/2000/svg" width="640" height="400" viewBox="0 0 640 400" role="img" aria-labelledby="t">
  <title id="t">Abstract ventilation schematic</title>
  <rect width="640" height="400" fill="#eee9e0"/>
  <g fill="none" stroke="#0f1e33" stroke-opacity=".08" stroke-width="1">
    <path d="M40 0V400"/><path d="M80 0V400"/><path d="M120 0V400"/><path d="M160 0V400"/><path d="M200 0V400"/><path d="M240 0V400"/><path d="M280 0V400"/><path d="M320 0V400"/><path d="M360 0V400"/><path d="M400 0V400"/><path d="M440 0V400"/><path d="M480 0V400"/><path d="M520 0V400"/><path d="M560 0V400"/><path d="M600 0V400"/>
    <path d="M0 40H640"/><path d="M0 80H640"/><path d="M0 120H640"/><path d="M0 160H640"/><path d="M0 200H640"/><path d="M0 240H640"/><path d="M0 280H640"/><path d="M0 320H640"/><path d="M0 360H640"/>
  </g>
  <g fill="none" stroke="#0f1e33" stroke-width="2.5" stroke-linejoin="round">
    <rect x="120" y="120" width="400" height="170"/>
    <path d="M120 175h400M120 235h400"/>
    <rect x="196" y="70" width="88" height="50"/>
    <rect x="356" y="70" width="88" height="50"/>
  </g>
  <g fill="none" stroke="#c8b28a" stroke-width="3" stroke-linecap="round">
    <path d="M240 95v-38"/><path d="M232 65l8-10 8 10"/>
    <path d="M400 57v38"/><path d="M392 87l8 10 8-10"/>
  </g>
  <g fill="none" stroke="#53616d" stroke-width="1.5" stroke-dasharray="6 5">
    <path d="M150 148h340M150 205h340M150 262h340"/>
  </g>
</svg>
